<svg fill="none" height="100" viewBox="0 0 100 100" width="100" xmlns="http://www.w3.org/2000/svg"><g stroke="#333" stroke-miterlimit="10"><path d="m54.11 54.34v3.1h-7.93v-3.06c-7.55-1-14-4.76-17.67-10v23.22c0 .2351.0463.4678.1363.685.0899.2172.2218.4145.388.5807s.3635.2981.5807.388c.2172.09.4499.1363.685.1363h39.4c.4747 0 .93-.1886 1.2657-.5243s.5243-.791.5243-1.2657v-23.26c-3.65 5.22-9.96 8.97-17.38 10z"/><path d="m69.58 39.88h-39.16c-.5066 0-.9924.2012-1.3506.5594s-.5594.844-.5594 1.3506v2.55c3.69 5.28 10.12 9.07 17.67 10v-2.42h7.93v2.42c7.42-1 13.73-4.78 17.38-10v-2.55c0-.5066-.2012-.9924-.5594-1.3506s-.844-.5594-1.3506-.5594z"/><path d="m46.18 51.92v2.46 3.06h7.93v-3.1-2.42z"/><path d="m59.7 30.93h-19.4c-.4014 0-.7865.1588-1.0713.4416-.2847.2829-.446.667-.4487 1.0684v7.44h2.74v-5.41c0-.236.0938-.4624.2607-.6293s.3933-.2607.6293-.2607h15.44c.2361 0 .4624.0938.6294.2607.1669.1669.2606.3933.2606.6293v5.41h2.48v-7.44c-.0026-.4014-.1639-.7855-.4487-1.0684-.2848-.2828-.6699-.4416-1.0713-.4416z" stroke-width="1.06"/></g></svg>